<svg xmlns="http://www.w3.org/2000/svg" id="Nou_logo" viewBox="0 0 1920 1080"><defs><style>.cls-1{fill:#f78c38;}.cls-2{fill:#161823;}</style></defs><g><rect class="cls-1" x="1477.7" y="246.45" width="51.93" height="51.95"></rect><path class="cls-2" d="m313.48,245.84h-106.79c-51.59,0-87.54,49.35-87.54,93.64v244.09h53.04v-244.09c0-16.17,13.76-40.61,34.5-40.61h106.79v-53.04Z"></path><path class="cls-2" d="m1287.28,245.84h-159.19v337.74h53.04v-284.7h106.15c55.91,0,71.21,18.45,71.21,85.85v198.84h53.04v-198.84c0-64.67-14.12-138.89-124.26-138.89Z"></path><path class="cls-2" d="m533.47,245.84h-129.54v53.04h129.54c20.74,0,34.5,24.44,34.5,40.61v42.48h-172.28c-44.29,0-93.65,35.95-93.65,87.54v23.43c0,51.59,49.35,87.54,93.65,87.54h225.32v-241c0-44.29-35.95-93.64-87.54-93.64Zm-137.77,281.6c-16.16,0-40.61-13.76-40.61-34.5v-23.43c0-20.75,24.44-34.51,40.61-34.51h172.28v92.44h-172.28Z"></path><path class="cls-2" d="m1713.31,245.84h-139.01v53.04h139.01c20.75,0,34.5,24.44,34.5,40.61v42.48h-172.27c-44.29,0-93.65,35.95-93.65,87.54v23.43c0,51.59,49.35,87.54,93.65,87.54h225.31v-241c0-44.29-35.95-93.64-87.54-93.64Zm-137.77,281.6c-16.17,0-40.61-13.76-40.61-34.5v-23.43c0-20.75,24.44-34.51,40.61-34.51h172.27v92.44h-172.27Z"></path><path class="cls-2" d="m875.21,242.61c-93.65,0-169.84,76.19-169.84,169.84s76.19,169.84,169.84,169.84,169.84-76.19,169.84-169.84-76.19-169.84-169.84-169.84Zm0,286.64c-64.4,0-116.8-52.4-116.8-116.81s52.4-116.8,116.8-116.8,116.8,52.4,116.8,116.8-52.39,116.81-116.8,116.81Z"></path></g><g><path class="cls-2" d="m163.09,792.71c4.52,0,8.27-1.32,11.24-3.95,2.98-2.63,4.57-5.88,4.77-9.75h17.05c-.2,5.01-1.76,9.69-4.69,14.04-2.93,4.34-6.9,7.78-11.91,10.31-5.01,2.53-10.42,3.8-16.23,3.8-11.27,0-20.2-3.65-26.81-10.95-6.6-7.3-9.9-17.37-9.9-30.23v-1.86c0-12.26,3.28-22.08,9.83-29.45,6.55-7.37,15.49-11.06,26.81-11.06,9.58,0,17.39,2.79,23.42,8.38,6.03,5.58,9.2,12.92,9.49,22h-17.05c-.2-4.62-1.78-8.41-4.73-11.39-2.95-2.98-6.71-4.47-11.28-4.47-5.86,0-10.38,2.12-13.55,6.37-3.18,4.24-4.79,10.68-4.84,19.32v2.9c0,8.74,1.58,15.25,4.73,19.55,3.15,4.29,7.71,6.44,13.66,6.44Z"></path><path class="cls-2" d="m206.43,764.64c0-7.89,1.56-15,4.69-21.33,3.13-6.33,7.52-11.19,13.18-14.59,5.66-3.4,12.16-5.1,19.51-5.1,10.87,0,19.69,3.5,26.47,10.5,6.78,7,10.44,16.28,10.98,27.85l.07,4.24c0,7.94-1.53,15.04-4.58,21.3-3.05,6.25-7.42,11.09-13.11,14.52-5.68,3.43-12.25,5.14-19.69,5.14-11.37,0-20.46-3.78-27.29-11.36-6.83-7.57-10.24-17.66-10.24-30.27v-.89Zm18.09,1.56c0,8.29,1.71,14.78,5.14,19.47,3.43,4.69,8.19,7.04,14.3,7.04s10.86-2.38,14.26-7.15c3.4-4.77,5.1-11.74,5.1-20.92,0-8.14-1.75-14.59-5.25-19.36-3.5-4.77-8.25-7.15-14.26-7.15s-10.6,2.35-14.07,7.04c-3.48,4.69-5.21,11.7-5.21,21.04Z"></path><path class="cls-2" d="m293.25,764.79c0-12.41,2.88-22.38,8.64-29.9,5.76-7.52,13.48-11.28,23.16-11.28,8.54,0,15.44,2.98,20.7,8.94v-41.25h18.09v114.37h-16.38l-.89-8.34c-5.41,6.55-12.63,9.83-21.67,9.83s-17.06-3.8-22.9-11.39c-5.83-7.6-8.75-17.92-8.75-30.98Zm18.09,1.56c0,8.19,1.58,14.58,4.73,19.17,3.15,4.59,7.63,6.89,13.44,6.89,7.4,0,12.81-3.3,16.23-9.9v-34.4c-3.33-6.45-8.69-9.68-16.08-9.68-5.86,0-10.38,2.32-13.55,6.96-3.18,4.64-4.77,11.63-4.77,20.96Z"></path><path class="cls-2" d="m382.75,704.18c0-2.78.88-5.09,2.64-6.92,1.76-1.84,4.28-2.75,7.56-2.75s5.81.92,7.6,2.75c1.79,1.84,2.68,4.15,2.68,6.92s-.89,5-2.68,6.81c-1.79,1.81-4.32,2.72-7.6,2.72s-5.8-.91-7.56-2.72c-1.76-1.81-2.64-4.08-2.64-6.81Zm19.21,101.49h-18.09v-80.57h18.09v80.57Z"></path><path class="cls-2" d="m438.45,725.1l.52,9.31c5.96-7.2,13.78-10.8,23.46-10.8,16.78,0,25.32,9.61,25.61,28.82v53.24h-18.09v-52.2c0-5.11-1.11-8.9-3.31-11.36-2.21-2.46-5.82-3.69-10.83-3.69-7.3,0-12.73,3.3-16.31,9.9v57.33h-18.09v-80.57h17.05Z"></path><path class="cls-2" d="m503.31,764.79c0-12.51,2.94-22.5,8.82-29.97,5.88-7.47,13.69-11.21,23.42-11.21,9.18,0,16.41,3.2,21.67,9.61l.82-8.12h16.31v78.11c0,10.57-3.29,18.91-9.87,25.02-6.58,6.11-15.45,9.16-26.62,9.16-5.91,0-11.68-1.23-17.31-3.69-5.63-2.46-9.92-5.67-12.84-9.64l8.56-10.87c5.56,6.6,12.41,9.9,20.55,9.9,6.01,0,10.75-1.63,14.22-4.88,3.47-3.25,5.21-8.03,5.21-14.33v-5.44c-5.21,5.81-12.16,8.71-20.85,8.71-9.43,0-17.14-3.75-23.12-11.24-5.98-7.49-8.97-17.87-8.97-31.12Zm18.02,1.56c0,8.09,1.65,14.46,4.95,19.1,3.3,4.64,7.88,6.96,13.74,6.96,7.3,0,12.71-3.13,16.23-9.38v-35.44c-3.43-6.11-8.79-9.16-16.08-9.16-5.96,0-10.59,2.36-13.89,7.07-3.3,4.72-4.95,11.67-4.95,20.85Z"></path><path class="cls-2" d="m663.99,792.71c4.52,0,8.27-1.32,11.24-3.95,2.98-2.63,4.57-5.88,4.77-9.75h17.05c-.2,5.01-1.76,9.69-4.69,14.04-2.93,4.34-6.9,7.78-11.91,10.31-5.01,2.53-10.42,3.8-16.23,3.8-11.27,0-20.2-3.65-26.81-10.95-6.6-7.3-9.9-17.37-9.9-30.23v-1.86c0-12.26,3.28-22.08,9.83-29.45,6.55-7.37,15.49-11.06,26.81-11.06,9.58,0,17.39,2.79,23.42,8.38,6.03,5.58,9.2,12.92,9.49,22h-17.05c-.2-4.62-1.78-8.41-4.73-11.39-2.95-2.98-6.71-4.47-11.28-4.47-5.86,0-10.38,2.12-13.55,6.37-3.18,4.24-4.79,10.68-4.84,19.32v2.9c0,8.74,1.58,15.25,4.73,19.55,3.15,4.29,7.71,6.44,13.66,6.44Z"></path><path class="cls-2" d="m707.33,764.64c0-7.89,1.56-15,4.69-21.33,3.13-6.33,7.52-11.19,13.18-14.59,5.66-3.4,12.16-5.1,19.51-5.1,10.87,0,19.69,3.5,26.47,10.5,6.78,7,10.44,16.28,10.98,27.85l.07,4.24c0,7.94-1.53,15.04-4.58,21.3-3.05,6.25-7.42,11.09-13.11,14.52-5.68,3.43-12.25,5.14-19.69,5.14-11.37,0-20.46-3.78-27.29-11.36-6.83-7.57-10.24-17.66-10.24-30.27v-.89Zm18.09,1.56c0,8.29,1.71,14.78,5.14,19.47,3.43,4.69,8.19,7.04,14.3,7.04s10.86-2.38,14.26-7.15c3.4-4.77,5.1-11.74,5.1-20.92,0-8.14-1.75-14.59-5.25-19.36-3.5-4.77-8.25-7.15-14.26-7.15s-10.6,2.35-14.07,7.04c-3.48,4.69-5.21,11.7-5.21,21.04Z"></path><path class="cls-2" d="m839.72,741.63c-2.38-.4-4.84-.6-7.37-.6-8.29,0-13.88,3.18-16.75,9.53v55.1h-18.09v-80.57h17.27l.45,9.01c4.37-7,10.42-10.5,18.17-10.5,2.58,0,4.72.35,6.4,1.04l-.07,16.98Z"></path><path class="cls-2" d="m921.7,766.2c0,12.46-2.83,22.4-8.49,29.82-5.66,7.42-13.25,11.13-22.78,11.13-8.84,0-15.91-2.9-21.22-8.71v38.2h-18.09v-111.54h16.68l.74,8.19c5.31-6.45,12.53-9.68,21.67-9.68,9.83,0,17.54,3.66,23.12,10.98,5.58,7.32,8.38,17.49,8.38,30.49v1.12Zm-18.02-1.56c0-8.04-1.6-14.42-4.8-19.14-3.2-4.72-7.78-7.07-13.74-7.07-7.4,0-12.71,3.05-15.93,9.16v35.74c3.28,6.25,8.64,9.38,16.08,9.38,5.76,0,10.26-2.32,13.51-6.96,3.25-4.64,4.88-11.68,4.88-21.11Z"></path><path class="cls-2" d="m933.61,764.64c0-7.89,1.56-15,4.69-21.33,3.13-6.33,7.52-11.19,13.18-14.59,5.66-3.4,12.16-5.1,19.51-5.1,10.87,0,19.69,3.5,26.47,10.5,6.78,7,10.44,16.28,10.98,27.85l.07,4.24c0,7.94-1.53,15.04-4.58,21.3-3.05,6.25-7.42,11.09-13.11,14.52-5.68,3.43-12.25,5.14-19.69,5.14-11.37,0-20.46-3.78-27.29-11.36-6.83-7.57-10.24-17.66-10.24-30.27v-.89Zm18.09,1.56c0,8.29,1.71,14.78,5.14,19.47,3.43,4.69,8.19,7.04,14.3,7.04s10.86-2.38,14.26-7.15c3.4-4.77,5.1-11.74,5.1-20.92,0-8.14-1.75-14.59-5.25-19.36-3.5-4.77-8.25-7.15-14.26-7.15s-10.6,2.35-14.07,7.04c-3.48,4.69-5.21,11.7-5.21,21.04Z"></path><path class="cls-2" d="m1066,741.63c-2.38-.4-4.84-.6-7.37-.6-8.29,0-13.88,3.18-16.75,9.53v55.1h-18.09v-80.57h17.27l.45,9.01c4.37-7,10.42-10.5,18.17-10.5,2.58,0,4.72.35,6.4,1.04l-.07,16.98Z"></path><path class="cls-2" d="m1123.34,805.67c-.79-1.54-1.49-4.05-2.09-7.52-5.76,6.01-12.81,9.01-21.15,9.01s-14.69-2.31-19.81-6.92c-5.11-4.62-7.67-10.32-7.67-17.13,0-8.59,3.19-15.18,9.57-19.77,6.38-4.59,15.5-6.89,27.36-6.89h11.09v-5.29c0-4.17-1.17-7.51-3.5-10.01-2.33-2.51-5.88-3.76-10.65-3.76-4.12,0-7.5,1.03-10.13,3.09-2.63,2.06-3.95,4.68-3.95,7.86h-18.09c0-4.42,1.46-8.55,4.39-12.4,2.93-3.85,6.91-6.86,11.95-9.05,5.04-2.18,10.66-3.28,16.87-3.28,9.43,0,16.95,2.37,22.56,7.11,5.61,4.74,8.49,11.41,8.64,19.99v36.34c0,7.25,1.02,13.03,3.05,17.35v1.27h-18.47Zm-19.88-13.03c3.57,0,6.94-.87,10.09-2.61,3.15-1.74,5.52-4.07,7.11-7v-15.19h-9.75c-6.7,0-11.74,1.17-15.12,3.5-3.38,2.33-5.06,5.63-5.06,9.9,0,3.48,1.15,6.24,3.46,8.3,2.31,2.06,5.4,3.09,9.27,3.09Z"></path><path class="cls-2" d="m1180.38,705.52v19.58h14.22v13.4h-14.22v44.97c0,3.08.61,5.3,1.82,6.66,1.22,1.37,3.39,2.05,6.52,2.05,2.09,0,4.19-.25,6.33-.74v14c-4.12,1.14-8.09,1.71-11.91,1.71-13.9,0-20.85-7.67-20.85-23.01v-45.64h-13.25v-13.4h13.25v-19.58h18.09Z"></path><path class="cls-2" d="m1243.89,807.16c-11.47,0-20.76-3.61-27.89-10.83-7.12-7.22-10.68-16.84-10.68-28.85v-2.23c0-8.04,1.55-15.23,4.65-21.56,3.1-6.33,7.46-11.26,13.07-14.78,5.61-3.52,11.86-5.29,18.76-5.29,10.97,0,19.45,3.5,25.43,10.5,5.98,7,8.97,16.9,8.97,29.71v7.3h-52.64c.55,6.65,2.77,11.91,6.66,15.79,3.9,3.87,8.8,5.81,14.71,5.81,8.29,0,15.04-3.35,20.25-10.05l9.75,9.31c-3.23,4.82-7.53,8.55-12.92,11.21-5.39,2.65-11.43,3.98-18.13,3.98Zm-2.16-69.03c-4.96,0-8.97,1.74-12.03,5.21-3.05,3.48-5,8.32-5.85,14.52h34.48v-1.34c-.4-6.06-2.01-10.64-4.84-13.74-2.83-3.1-6.75-4.65-11.76-4.65Z"></path><path class="cls-2" d="m1334.58,805.67v-67.16h-12.29v-13.4h12.29v-7.37c0-8.94,2.48-15.83,7.45-20.7,4.96-4.86,11.91-7.3,20.85-7.3,3.18,0,6.55.45,10.13,1.34l-.45,14.15c-1.99-.4-4.29-.6-6.92-.6-8.64,0-12.96,4.44-12.96,13.33v7.15h16.38v13.4h-16.38v67.16h-18.09Z"></path><path class="cls-2" d="m1431.08,797.78c-5.31,6.25-12.86,9.38-22.64,9.38-8.74,0-15.35-2.56-19.84-7.67-4.49-5.11-6.74-12.51-6.74-22.19v-52.2h18.09v51.97c0,10.23,4.24,15.34,12.73,15.34s14.72-3.15,17.8-9.46v-57.86h18.09v80.57h-17.05l-.45-7.89Z"></path><path class="cls-2" d="m1489.69,705.52v19.58h14.22v13.4h-14.22v44.97c0,3.08.61,5.3,1.82,6.66,1.22,1.37,3.39,2.05,6.52,2.05,2.09,0,4.19-.25,6.33-.74v14c-4.12,1.14-8.09,1.71-11.91,1.71-13.9,0-20.85-7.67-20.85-23.01v-45.64h-13.25v-13.4h13.25v-19.58h18.09Z"></path><path class="cls-2" d="m1566.53,797.78c-5.31,6.25-12.86,9.38-22.64,9.38-8.74,0-15.35-2.56-19.84-7.67-4.49-5.11-6.74-12.51-6.74-22.19v-52.2h18.09v51.97c0,10.23,4.24,15.34,12.73,15.34s14.72-3.15,17.8-9.46v-57.86h18.09v80.57h-17.05l-.45-7.89Z"></path><path class="cls-2" d="m1644.64,741.63c-2.38-.4-4.84-.6-7.37-.6-8.29,0-13.88,3.18-16.75,9.53v55.1h-18.09v-80.57h17.27l.45,9.01c4.37-7,10.42-10.5,18.17-10.5,2.58,0,4.72.35,6.4,1.04l-.07,16.98Z"></path><path class="cls-2" d="m1691.55,807.16c-11.47,0-20.76-3.61-27.89-10.83-7.12-7.22-10.68-16.84-10.68-28.85v-2.23c0-8.04,1.55-15.23,4.65-21.56,3.1-6.33,7.46-11.26,13.07-14.78,5.61-3.52,11.86-5.29,18.76-5.29,10.97,0,19.45,3.5,25.43,10.5,5.98,7,8.97,16.9,8.97,29.71v7.3h-52.64c.55,6.65,2.77,11.91,6.66,15.79,3.9,3.87,8.8,5.81,14.71,5.81,8.29,0,15.04-3.35,20.25-10.05l9.75,9.31c-3.23,4.82-7.53,8.55-12.92,11.21-5.39,2.65-11.43,3.98-18.13,3.98Zm-2.16-69.03c-4.96,0-8.97,1.74-12.03,5.21-3.05,3.48-5,8.32-5.85,14.52h34.48v-1.34c-.4-6.06-2.01-10.64-4.84-13.74-2.83-3.1-6.75-4.65-11.76-4.65Z"></path><path class="cls-2" d="m1783.06,783.78c0-3.23-1.33-5.68-3.98-7.37-2.66-1.69-7.06-3.18-13.22-4.47-6.16-1.29-11.29-2.93-15.41-4.91-9.04-4.37-13.55-10.7-13.55-18.99,0-6.95,2.93-12.76,8.79-17.42,5.86-4.67,13.3-7,22.34-7,9.63,0,17.41,2.38,23.34,7.15,5.93,4.77,8.9,10.95,8.9,18.54h-18.09c0-3.47-1.29-6.37-3.87-8.67-2.58-2.31-6.01-3.46-10.28-3.46-3.97,0-7.21.92-9.72,2.75-2.51,1.84-3.76,4.29-3.76,7.37,0,2.78,1.17,4.94,3.5,6.48,2.33,1.54,7.05,3.09,14.15,4.65,7.1,1.56,12.67,3.42,16.72,5.58,4.05,2.16,7.05,4.75,9.01,7.78,1.96,3.03,2.94,6.7,2.94,11.02,0,7.25-3,13.12-9.01,17.61-6.01,4.49-13.88,6.74-23.6,6.74-6.6,0-12.48-1.19-17.65-3.57-5.16-2.38-9.18-5.66-12.06-9.83-2.88-4.17-4.32-8.66-4.32-13.48h17.57c.25,4.27,1.86,7.56,4.84,9.87,2.98,2.31,6.92,3.46,11.84,3.46s8.39-.91,10.87-2.72c2.48-1.81,3.72-4.18,3.72-7.11Z"></path></g></svg>